<svg id="Ebene_1" data-name="Ebene 1" xmlns="http://www.w3.org/2000/svg" xmlns:xlink="http://www.w3.org/1999/xlink" viewBox="0 0 94.67 70.83"><defs><style>.cls-1{fill:none;}.cls-1,.cls-2{stroke:#1a1a18;stroke-miterlimit:10;}.cls-2{fill:#fff;}.cls-3{clip-path:url(#clip-path);}</style><clipPath id="clip-path" transform="translate(-25.96 -11.08)"><circle class="cls-1" cx="68.73" cy="49.79" r="29.7"/></clipPath></defs><path class="cls-2" d="M33.21,69.39l-4.15,7.68,9-2.83.12.09c.39.33.65.58,1.06.88a31.55,31.55,0,1,0-6-5.82Z" transform="translate(-25.96 -11.08)"/><g class="cls-3"><path class="cls-1" d="M69.23,81.14" transform="translate(-25.96 -11.08)"/><line class="cls-1" x1="42.77" y1="68.41" x2="42.77" y2="9.01"/><ellipse class="cls-1" cx="42.68" cy="12.68" rx="29.46" ry="12.18"/><path class="cls-1" d="M37.87,45.42s27,18.41,62.71-1" transform="translate(-25.96 -11.08)"/><path class="cls-1" d="M37.87,61.82s27.05,18.41,62.71-1" transform="translate(-25.96 -11.08)"/></g><circle class="cls-1" cx="42.77" cy="38.71" r="29.7"/><path class="cls-1" d="M110.68,41l8.65,1.16-7.55,5.58v.14c0,.51.07.87.08,1.38A31.54,31.54,0,1,1,110.68,41Z" transform="translate(-25.96 -11.08)"/><path class="cls-2" d="M33.21,69.39l-4.15,7.68,9-2.83.12.09c.39.33.65.58,1.06.88a31.55,31.55,0,1,0-6-5.82Z" transform="translate(-25.96 -11.08)"/><g class="cls-3"><path class="cls-1" d="M69.23,81.14" transform="translate(-25.96 -11.08)"/><line class="cls-1" x1="42.77" y1="68.41" x2="42.77" y2="9.01"/><ellipse class="cls-1" cx="42.68" cy="12.68" rx="29.46" ry="12.18"/><path class="cls-1" d="M37.87,45.42s27,18.41,62.71-1" transform="translate(-25.96 -11.08)"/><path class="cls-1" d="M37.87,61.82s27.05,18.41,62.71-1" transform="translate(-25.96 -11.08)"/></g><circle class="cls-1" cx="42.77" cy="38.71" r="29.7"/><path class="cls-1" d="M110.68,41l8.65,1.16-7.55,5.58v.14c0,.51.07.87.08,1.38A31.54,31.54,0,1,1,110.68,41Z" transform="translate(-25.96 -11.08)"/></svg>